<?xml version="1.0" encoding="UTF-8" standalone="no"?>
<!-- Created with Inkscape (http://www.inkscape.org/) -->

<svg
   xmlns:dc="http://purl.org/dc/elements/1.1/"
   xmlns:cc="http://creativecommons.org/ns#"
   xmlns:rdf="http://www.w3.org/1999/02/22-rdf-syntax-ns#"
   xmlns:svg="http://www.w3.org/2000/svg"
   xmlns="http://www.w3.org/2000/svg"
   xmlns:sodipodi="http://sodipodi.sourceforge.net/DTD/sodipodi-0.dtd"
   xmlns:inkscape="http://www.inkscape.org/namespaces/inkscape"
   width="350px"
   height="270px"
   viewBox="0 0 12401.575 9566.9288"
   id="svg4158"
   version="1.1">
  <defs
     id="defs4160" />
  
  <g
     inkscape:label="Livello 1"
     inkscape:groupmode="layer"
     id="layer1"
     transform="translate(0,8514.5669)">
    <path
       style="fill:#747474;fill-opacity:1;fill-rule:evenodd;stroke:#000000;stroke-width:23.27000046px;stroke-linecap:butt;stroke-linejoin:miter;stroke-opacity:1"
       d="m 1076.7444,-6811.0232 c 3230.7242,-1045.3842 6639.8519,-1282.0069 10386.8256,12.9349 l -51.74,7566.98934 -10348.0207,-12.9351 z"
       id="path6749"/>
    <path
       style="display:inline;fill:#007474;fill-opacity:1;fill-rule:evenodd;stroke:#000000;stroke-width:23.26999855px;stroke-linecap:butt;stroke-linejoin:miter;stroke-opacity:1"
       d="m 4037.8462,-4878.7148 2184.998,0 0,-2756.6309 -2184.998,168.1553 z"
       id="path6755"/>
    <path
       style="display:inline;fill:#007474;fill-opacity:1;fill-rule:evenodd;stroke:#000000;stroke-width:23.26999855px;stroke-linecap:butt;stroke-linejoin:miter;stroke-opacity:1"
       d="m 6305.297,-7628.878 1401.6969,64.6749 0,2685.4883 -1401.6969,0 z"
       id="path6757"/>
    <path
       style="display:inline;fill:#007474;fill-opacity:1;fill-rule:evenodd;stroke:#000000;stroke-width:23.26999855px;stroke-linecap:butt;stroke-linejoin:miter;stroke-opacity:1"
       d="m 7789.4467,-7570.6704 1566.6022,258.7005 0,2433.2551 -1566.6022,0 z"
       id="path6759"/>
    <path
       style="display:inline;fill:#007474;fill-opacity:1;fill-rule:evenodd;stroke:#000000;stroke-width:23.26999855px;stroke-linecap:butt;stroke-linejoin:miter;stroke-opacity:1"
       d="m 2265.112,-3813.0461 1690.2814,-1065.6687 0,-2582.0079 -1690.2814,349.2453 z"
       id="path6753"/>
    <path
       style="display:inline;fill:#007474;fill-opacity:1;fill-rule:evenodd;stroke:#000000;stroke-width:23.26999855px;stroke-linecap:butt;stroke-linejoin:miter;stroke-opacity:1"
       d="m 1151.9996,-6775.1665 1030.6596,-316.9082 0,3317.8337 -318.4957,214.7703 -712.1639,0 z"
       id="path6751"/>
    <path
       style="display:inline;fill:#007474;fill-opacity:1;fill-rule:evenodd;stroke:#000000;stroke-width:23.26999855px;stroke-linecap:butt;stroke-linejoin:miter;stroke-opacity:1"
       d="m 2485.0445,707.74494 -6.4673,-1804.43604 c -11.2059,-504.069 295.871,-646.4528 659.6862,-724.3614 l 653.2188,0 c 380.8222,-65.3726 399.0397,-257.6569 446.2583,-439.7906 l 0,2981.52294 z"
       id="path6763"/>
    <path
       style="display:inline;fill:#007474;fill-opacity:1;fill-rule:evenodd;stroke:#000000;stroke-width:23.26999855px;stroke-linecap:butt;stroke-linejoin:miter;stroke-opacity:1"
       d="m 4283.013,-3754.8385 12.9351,4475.51834 3343.7038,-6.4674 -19.4025,-4889.43914 -2955.6531,-12.9351 c -175.0306,64.7144 -357.3146,117.3395 -381.5833,433.3233 z"
       id="path6765"/>
    <path
       style="display:inline;fill:#007474;fill-opacity:1;fill-rule:evenodd;stroke:#000000;stroke-width:23.26999855px;stroke-linecap:butt;stroke-linejoin:miter;stroke-opacity:1"
       d="m 7678.457,-4175.2267 1202.9572,0 1170.6198,1513.3977 6.467,2541.73234 1280.569,6.4674 0,821.3742 -3641.2106,0 z"
       id="path6769"/>
    <path
       style="display:inline;fill:#007474;fill-opacity:1;fill-rule:evenodd;stroke:#000000;stroke-width:23.26999855px;stroke-linecap:butt;stroke-linejoin:miter;stroke-opacity:1"
       d="m 11345.537,-2739.439 -704.959,-6.4674 0,2561.13444 698.492,19.4026 z"
       id="path6767"/>
    <path
       style="display:inline;fill:#007474;fill-opacity:1;fill-rule:evenodd;stroke:#000000;stroke-width:23.26999855px;stroke-linecap:butt;stroke-linejoin:miter;stroke-opacity:1"
       d="m 9438.5017,-7311.9699 0,2574.0696 1195.5653,1578.073 742.076,0 0,-3602.4043 z"
       id="path6761"/>
  </g>
</svg>
