<?xml version="1.0" encoding="utf-8"?>
<!-- Generated by IcoMoon.io -->
<!DOCTYPE svg PUBLIC "-//W3C//DTD SVG 1.1//EN" "http://www.w3.org/Graphics/SVG/1.1/DTD/svg11.dtd">
<svg version="1.1" xmlns="http://www.w3.org/2000/svg" xmlns:xlink="http://www.w3.org/1999/xlink" width="512" height="512" viewBox="0 0 512 512">
<g>
</g>
	<path d="M406.712 463.268v-81.736l-81.705 81.736h81.705zM406.712 296.55v-247.798h-301.384v414.515h153.579l48.138-1.403-0.481-100.495 100.464 0.522-0.317-65.341zM451.328 5.888v500.224h-390.656v-500.224h390.656z" fill="#000000" />
	<path d="M122.235 150.845v81.889h47.063c0.819 0.051 13.998 0.532 25.037-10.035 9.319-8.909 13.936-22.498 13.66-40.356-0.205-14.224-13.578-41.196-38.441-42.158-0.379-0.010-36.516-0.102-36.516-0.102l-10.803-0.010v10.773zM168.734 161.7c11.264 0.44 17.664 15.882 17.736 20.9 0.164 11.51-2.284 19.988-7.055 24.535-4.178 4.055-9.421 4.076-9.502 4.076-0.625-0.030-36.885-0.030-36.885-0.030l10.782 10.773v-71.097l-10.823 10.782c0-0.010 36.126 0.082 35.748 0.061z" fill="#000000" />
	<path d="M278.569 185.16c0 14.192-10.096 25.774-22.518 25.774s-22.518-11.582-22.518-25.774c0-14.213 10.096-25.764 22.518-25.764s22.518 11.55 22.518 25.764zM256.051 137.831c-24.299 0-44.083 21.227-44.083 47.329 0 26.112 19.784 47.309 44.083 47.309s44.083-21.197 44.083-47.309c0-26.102-19.784-47.329-44.083-47.329z" fill="#000000" />
	<path d="M388.567 166.799c-6.656-16.988-22.364-28.979-40.601-28.979-24.3 0-44.103 21.218-44.103 47.339 0 26.112 19.804 47.309 44.103 47.309 19.435 0 35.963-13.547 41.8-32.338l-21.022-4.946c-3.461 9.267-11.479 15.78-20.777 15.78-12.421 0-22.558-11.582-22.558-25.805s10.137-25.805 22.558-25.805c7.618 0 14.356 4.373 18.442 11.008l22.159-3.564z" fill="#000000" />
</svg>
