<?xml version="1.0" encoding="UTF-8" standalone="no"?>
<!-- Generated by IcoMoon.io -->

<svg
   xmlns:dc="http://purl.org/dc/elements/1.1/"
   xmlns:cc="http://creativecommons.org/ns#"
   xmlns:rdf="http://www.w3.org/1999/02/22-rdf-syntax-ns#"
   xmlns:svg="http://www.w3.org/2000/svg"
   xmlns="http://www.w3.org/2000/svg"
   xmlns:sodipodi="http://sodipodi.sourceforge.net/DTD/sodipodi-0.dtd"
   xmlns:inkscape="http://www.inkscape.org/namespaces/inkscape"
   version="1.1"
   width="512"
   height="512"
   viewBox="0 0 512 512"
   id="svg3354"
   inkscape:version="0.91 r13725"
   sodipodi:docname="Icons.svg">
  <metadata
     id="metadata3370">
    <rdf:RDF>
      <cc:Work
         rdf:about="">
        <dc:format>image/svg+xml</dc:format>
        <dc:type
           rdf:resource="http://purl.org/dc/dcmitype/StillImage" />
        <dc:title />
      </cc:Work>
    </rdf:RDF>
  </metadata>
  <defs
     id="defs3368" />
  <sodipodi:namedview
     pagecolor="#ffffff"
     bordercolor="#666666"
     borderopacity="1"
     objecttolerance="10"
     gridtolerance="10"
     guidetolerance="10"
     inkscape:pageopacity="0"
     inkscape:pageshadow="2"
     inkscape:window-width="1600"
     inkscape:window-height="838"
     id="namedview3366"
     showgrid="false"
     inkscape:zoom="0.32656155"
     inkscape:cx="-349.14046"
     inkscape:cy="422.3286"
     inkscape:window-x="1912"
     inkscape:window-y="-8"
     inkscape:window-maximized="1"
     inkscape:current-layer="svg3354" />
  <g
     id="g3356" />
  <path
     d="m 255.07819,336.48799 0,-58.55389 -58.53174,58.55389 z m 0,-119.43315 0,-177.517085 -215.904939,0 0,296.949465 110.020599,0 34.48502,-1.00503 -0.34386,-71.99247 71.97032,0.37442 -0.22734,-46.80882 z m 31.96193,-208.223925 0,358.349585 -279.8574589,0 0,-358.349585 z m -243.299499,50.21368 0,58.663455 33.71496,0 c 0.58647,0.0382 10.02787,0.38111 17.93592,-7.18881 6.675959,-6.38226 9.983429,-16.117081 9.785809,-28.910251 -0.1471,-10.18977 -9.726969,-29.511834 -27.538339,-30.201084 -0.27127,-0.005 -26.15927,-0.0764 -26.15927,-0.0764 l -7.73908,-0.005 0,7.71759 z m 33.31092,7.77624 c 8.06929,0.3152 12.65411,11.377524 12.70569,14.972304 0.11749,8.24552 -1.63621,14.31897 -5.05401,17.5763 -2.99312,2.904961 -6.74904,2.919951 -6.80702,2.919951 -0.44702,-0.0191 -26.42366,-0.0191 -26.42366,-0.0191 l 7.72399,7.71759 0,-50.932295 -7.75332,7.72399 c 0,-0.01 25.87989,0.0573 25.60909,0.0382 z m 86.694769,16.796154 c 0,10.16684 -7.23255,18.463931 -16.1314,18.463931 -8.89876,0 -16.13141,-8.297091 -16.13141,-18.463931 0,-10.18193 7.23265,-18.45677 16.13141,-18.45677 8.89885,0 16.1314,8.27417 16.1314,18.45677 z m -16.1314,-33.90552 c -17.40723,0 -31.58006,15.20662 -31.58006,33.90552 0,18.706071 14.17283,33.891091 31.58006,33.891091 17.40732,0 31.58015,-15.18502 31.58015,-33.891091 0,-18.6989 -14.17283,-33.90552 -31.58015,-33.90552 z m 101.49494,21.64278 c -4.76821,-12.16993 -16.02108,-20.75997 -29.08562,-20.75997 -17.40799,0 -31.59448,15.20011 -31.59448,33.91267 0,18.706071 14.18716,33.891091 31.59448,33.891091 13.92276,0 25.76306,-9.70473 29.94461,-23.166241 l -15.0597,-3.5432 c -2.47944,6.63872 -8.22336,11.304451 -14.88424,11.304451 -8.89809,0 -16.16006,-8.297101 -16.16006,-18.486101 0,-10.18909 7.26197,-18.48619 16.16006,-18.48619 5.45737,0 10.28432,3.13277 13.21145,7.8859 l 15.87427,-2.55318 z"
     id="Doc"
     inkscape:connector-curvature="0"
     style="fill:#000000"
     inkscape:label="Doc Icon"
     sodipodi:nodetypes="cccccccccccccccccccccccccccccccccccccccsssssssssscsssccsssccc" />
  <path
     d="m 252.29636,85.110919 c -25.8689,0 -46.85104,20.999251 -46.85104,46.868151 0,25.85265 20.98214,46.86813 46.85104,46.86813 25.85267,0 46.80148,-21.00736 46.80148,-46.86813 0,-25.8689 -20.94881,-46.868151 -46.80148,-46.868151 z m 1.64089,65.893151 c -10.83221,0 -19.58282,-8.75061 -19.58282,-19.58282 0,-10.81588 8.75061,-19.59983 19.58282,-19.59983 10.83221,0 19.58282,8.77583 19.58282,19.59983 -0.008,10.83221 -8.75061,19.58282 -19.58282,19.58282 z M 135.43788,26.751979 c -9.15876,0 -16.65236,-3.83787 -16.65236,-8.53435 0,-4.69648 -7.4936,-8.5424799 -16.65235,-8.5424799 l -36.29374,0 c -9.15884,0 -16.65235,3.8386399 -16.65235,8.5424799 0,4.69648 -7.4936,8.53435 -16.65236,8.53435 l -6.38617,0 c -9.15876,0 -16.6523598,7.49361 -16.6523598,16.65236 l 0,180.986471 c 0,9.15875 7.4935998,16.65235 16.6523598,16.65235 l 320.10857,0 c 9.15875,0 16.65235,-7.4936 16.65235,-16.65235 l 0,-180.986471 c 0,-9.15875 -7.4936,-16.65236 -16.65235,-16.65236 l -210.81924,0 z m -16.65159,47.65119 c 0,8.80916 -7.49351,16.01077 -16.65236,16.01077 l -36.29373,0 c -9.15875,0 -16.65236,-7.20161 -16.65236,-16.01077 0,-8.80916 7.49361,-16.01086 16.65236,-16.01086 l 36.29373,0 c 9.15885,0.008 16.65236,7.21058 16.65236,16.01086 z M 252.29636,204.50797 c -40.04048,0 -72.52967,-32.47219 -72.52967,-72.52976 0,-40.040491 32.49731,-72.545911 72.52967,-72.545911 40.08281,0 72.54601,32.50542 72.54601,72.545911 -0.008,40.04946 -32.46396,72.52976 -72.54601,72.52976 z"
     id="Pic"
     inkscape:connector-curvature="0"
     style="fill:#000000"
     inkscape:label="Pic Icon" />
  <path
     d="m 349.05349,130.94844 c 9.7072,-7.2912 17.6666,-3.30078 17.6666,8.84364 l 0,198.79496 c 0,12.14443 -7.9594,16.13484 -17.6666,8.84431 l -53.02096,-39.77628 c -9.70644,-7.2912 -17.66579,-23.18859 -17.66579,-35.33302 l 0,-66.26498 c 0,-12.14443 7.95935,-28.04182 17.66656,-35.33311 l 53.02019,-39.77552 z M 57.48349,29.350442 c -24.3966,0 -44.17666,19.78006 -44.17666,44.176656 0,24.396496 19.78006,44.176652 44.17666,44.176652 24.39659,0 44.17666,-19.780156 44.17666,-44.176652 0,-24.396596 -19.78007,-44.176656 -44.17666,-44.176656 z M 190.01343,7.2621122 c -30.50115,0 -55.22079,24.7202998 -55.22079,55.2208198 0,30.500521 24.7203,55.220818 55.22079,55.220818 30.50052,0 55.22082,-24.720297 55.22082,-55.220818 0,-30.50052 -24.71964,-55.2208198 -55.22082,-55.2208198 z m -88.35328,176.7066278 154.61826,0 0,132.52997 c 0,12.20928 -9.87971,22.08833 -22.08833,22.08833 l -198.79492,0 c -12.20928,0 -22.08833,-9.87972 -22.08833,-22.08833 l 0,-154.6183 c 0,-12.20938 9.87972,-22.08833 22.08833,-22.08833 l 198.79492,0 c 12.20929,0 22.08833,9.87962 22.08833,22.08833 l -154.61826,0 0,22.08833 z m 0,88.35331 c 0,-12.20937 -9.87972,-22.08832 -22.08833,-22.08832 -12.20861,0 -22.08833,9.87962 -22.08833,22.08832 0,12.20862 9.87972,22.08833 22.08833,22.08833 12.20861,0 22.08833,-9.87905 22.08833,-22.08833 z"
     id="Video"
     inkscape:connector-curvature="0"
     inkscape:label="Vid Icon" />
</svg>
