<?xml version="1.0" encoding="utf-8"?>
<!-- Generated by IcoMoon.io -->
<!DOCTYPE svg PUBLIC "-//W3C//DTD SVG 1.1//EN" "http://www.w3.org/Graphics/SVG/1.1/DTD/svg11.dtd">
<svg version="1.1" xmlns="http://www.w3.org/2000/svg" xmlns:xlink="http://www.w3.org/1999/xlink" width="512" height="512" viewBox="0 0 512 512">
<g>
</g>
	<path d="M337.285 206.5c-31.815 0-57.62 25.826-57.62 57.641 0 31.795 25.805 57.641 57.62 57.641 31.795 0 57.559-25.836 57.559-57.641 0-31.815-25.764-57.641-57.559-57.641zM339.303 287.539c-13.322 0-24.084-10.762-24.084-24.084 0-13.302 10.762-24.105 24.084-24.105s24.084 10.793 24.084 24.105c-0.010 13.322-10.762 24.084-24.084 24.084zM193.566 134.727c-11.264 0-20.48-4.72-20.48-10.496s-9.216-10.506-20.48-10.506h-44.636c-11.264 0-20.48 4.721-20.48 10.506 0 5.776-9.216 10.496-20.48 10.496h-7.854c-11.264 0-20.48 9.216-20.48 20.48v222.587c0 11.264 9.216 20.48 20.48 20.48h393.687c11.264 0 20.48-9.216 20.48-20.48v-222.587c0-11.264-9.216-20.48-20.48-20.48h-259.277zM173.087 193.331c0 10.834-9.216 19.691-20.48 19.691h-44.636c-11.264 0-20.48-8.857-20.48-19.691s9.216-19.691 20.48-19.691h44.636c11.264 0.010 20.48 8.868 20.48 19.691zM337.285 353.341c-49.244 0-89.201-39.936-89.201-89.201 0-49.244 39.967-89.221 89.201-89.221 49.296 0 89.221 39.977 89.221 89.221-0.010 49.255-39.926 89.201-89.221 89.201z" fill="#000000" />
</svg>
